<?xml version="1.0" encoding="UTF-8" standalone="no"?>
<svg
   xmlns:dc="http://purl.org/dc/elements/1.1/"
   xmlns:cc="http://creativecommons.org/ns#"
   xmlns:rdf="http://www.w3.org/1999/02/22-rdf-syntax-ns#"
   xmlns:svg="http://www.w3.org/2000/svg"
   xmlns="http://www.w3.org/2000/svg"
   xmlns:sodipodi="http://sodipodi.sourceforge.net/DTD/sodipodi-0.dtd"
   xmlns:inkscape="http://www.inkscape.org/namespaces/inkscape"
   inkscape:version="1.0 (4035a4fb49, 2020-05-01)"
   sodipodi:docname="chicdroitorange.svg"
   id="svg849"
   preserveAspectRatio="xMidYMid meet"
   viewBox="0 0 263.000000 54.000000"
   height="54.000000pt"
   width="263.000000pt"
   version="1.0">
  <defs
     id="defs853" />
  <sodipodi:namedview
     inkscape:current-layer="svg849"
     inkscape:window-maximized="1"
     inkscape:window-y="-8"
     inkscape:window-x="-8"
     inkscape:cy="36"
     inkscape:cx="175.33333"
     inkscape:zoom="3.5019011"
     showgrid="false"
     id="namedview851"
     inkscape:window-height="1027"
     inkscape:window-width="1920"
     inkscape:pageshadow="2"
     inkscape:pageopacity="0"
     guidetolerance="10"
     gridtolerance="10"
     objecttolerance="10"
     borderopacity="1"
     bordercolor="#666666"
     pagecolor="#ffffff" />
  <metadata
     id="metadata843">
Created by potrace 1.16, written by Peter Selinger 2001-2019
<rdf:RDF>
  <cc:Work
     rdf:about="">
    <dc:format>image/svg+xml</dc:format>
    <dc:type
       rdf:resource="http://purl.org/dc/dcmitype/StillImage" />
    <dc:title></dc:title>
  </cc:Work>
</rdf:RDF>
</metadata>
  <g
     style="fill:#6e4ccc;fill-opacity:1"
     id="g847"
     stroke="none"
     fill="#000000"
     transform="matrix(0.14572803,0,0,-0.14120948,-25.216872,67.513627)">
    <path
       style="fill:#cc8027;fill-opacity:1;stroke-width:1.03278"
       id="path845"
       d="M 412.9248,361 C 393.72553,350 249.73105,320 214.53239,320 200.66626,320 190,316 190,312 c 0,-5 39.46516,-14 88.52994,-21 47.99817,-8 103.46271,-20 122.66197,-27 27.73227,-11 58.66442,-11 143.99449,-4 120.52872,11 571.7114,26 1077.2921,37 330.654,6 434.1167,23 146.1277,23 -289.0556,0 -1201.02066,32 -1301.28349,45 -20.26589,3 -44.79828,1 -54.39791,-4 z" />
  </g>
</svg>
