<?xml version="1.0" standalone="no"?>
<!DOCTYPE svg PUBLIC "-//W3C//DTD SVG 20010904//EN"
 "http://www.w3.org/TR/2001/REC-SVG-20010904/DTD/svg10.dtd">
<svg version="1.0" xmlns="http://www.w3.org/2000/svg"
 width="252.000000pt" height="55.000000pt" viewBox="0 0 252.000000 55.000000"
 preserveAspectRatio="xMidYMid meet">
<metadata>
Created by potrace 1.16, written by Peter Selinger 2001-2019
</metadata>
<g transform="translate(0.000000,55.000000) scale(0.100000,-0.100000)"
fill="#000000" stroke="none">
<path d="M2025 359 c-95 -10 -570 -27 -990 -35 -165 -4 -306 -10 -313 -14 -8
-4 125 -10 295 -13 493 -11 910 -26 1020 -37 84 -9 108 -8 130 3 16 8 67 21
115 28 48 7 84 16 80 20 -4 3 -43 12 -87 19 -44 7 -92 19 -107 26 -15 8 -35
13 -45 13 -10 -1 -54 -5 -98 -10z"/>
</g>
</svg>
