<?xml version="1.0" standalone="no"?>
<!DOCTYPE svg PUBLIC "-//W3C//DTD SVG 20010904//EN"
 "http://www.w3.org/TR/2001/REC-SVG-20010904/DTD/svg10.dtd">
<svg version="1.0" xmlns="http://www.w3.org/2000/svg"
 width="60.000000pt" height="45.000000pt" viewBox="0 0 60.000000 45.000000"
 preserveAspectRatio="xMidYMid meet">
<metadata>
Created by potrace 1.10, written by Peter Selinger 2001-2011
</metadata>
<g transform="translate(0.000000,45.000000) scale(0.050000,-0.050000)"
fill="#000000" stroke="none">
<path d="M626 720 c-236 -62 -226 -49 -226 -290 0 -178 -4 -207 -30 -197 -48
18 -133 -49 -126 -99 5 -35 21 -45 79 -50 111 -9 137 42 137 268 l0 184 95 21
c52 11 138 26 190 33 l95 12 0 -156 c0 -153 -1 -156 -50 -159 -102 -6 -150
-104 -71 -146 43 -23 127 0 153 42 8 14 17 149 20 301 l4 276 -63 -1 c-35 -1
-128 -18 -207 -39z m214 -46 c0 -18 -50 -35 -145 -51 -80 -13 -172 -29 -205
-36 -104 -21 -30 26 110 70 153 48 240 54 240 17z"/>
</g>
</svg>
