<?xml version="1.0" standalone="no"?>
<!DOCTYPE svg PUBLIC "-//W3C//DTD SVG 20010904//EN"
 "http://www.w3.org/TR/2001/REC-SVG-20010904/DTD/svg10.dtd">
<svg version="1.0" xmlns="http://www.w3.org/2000/svg"
 width="263.000000pt" height="54.000000pt" viewBox="0 0 263.000000 54.000000"
 preserveAspectRatio="xMidYMid meet">
<metadata>
Created by potrace 1.16, written by Peter Selinger 2001-2019
</metadata>
<g transform="translate(0.000000,54.000000) scale(0.100000,-0.100000)"
fill="#000000" stroke="none">
<path d="M399 361 c-18 -11 -153 -41 -186 -41 -13 0 -23 -4 -23 -8 0 -5 37
-14 83 -21 45 -8 97 -20 115 -27 26 -11 55 -11 135 -4 113 11 536 26 1010 37
310 6 407 23 137 23 -271 0 -1126 32 -1220 45 -19 3 -42 1 -51 -4z"/>
</g>
</svg>
