<?xml version="1.0" standalone="no"?>
<!DOCTYPE svg PUBLIC "-//W3C//DTD SVG 20010904//EN"
 "http://www.w3.org/TR/2001/REC-SVG-20010904/DTD/svg10.dtd">
<svg version="1.0" xmlns="http://www.w3.org/2000/svg"
 width="340.000000pt" height="78.000000pt" viewBox="0 0 340.000000 78.000000"
 preserveAspectRatio="xMidYMid meet">
<metadata>
Created by potrace 1.16, written by Peter Selinger 2001-2019
</metadata>
<g transform="translate(0.000000,78.000000) scale(0.100000,-0.100000)"
fill="#000000" stroke="none">
<path d="M2755 520 c-260 -21 -1031 -46 -1730 -56 -247 -4 -459 -10 -469 -14
-11 -4 185 -10 435 -14 596 -8 1064 -22 1494 -43 421 -21 411 -21 505 6 41 12
121 27 178 33 56 7 102 15 102 19 0 4 -38 10 -85 14 -47 4 -126 18 -177 31
-120 32 -134 33 -253 24z"/>
</g>
</svg>
