<?xml version="1.0" encoding="UTF-8" standalone="no"?>
<svg
   xmlns:dc="http://purl.org/dc/elements/1.1/"
   xmlns:cc="http://creativecommons.org/ns#"
   xmlns:rdf="http://www.w3.org/1999/02/22-rdf-syntax-ns#"
   xmlns:svg="http://www.w3.org/2000/svg"
   xmlns="http://www.w3.org/2000/svg"
   xmlns:sodipodi="http://sodipodi.sourceforge.net/DTD/sodipodi-0.dtd"
   xmlns:inkscape="http://www.inkscape.org/namespaces/inkscape"
   version="1.0"
   width="340.000000pt"
   height="78.000000pt"
   viewBox="0 0 340.000000 78.000000"
   preserveAspectRatio="xMidYMid meet"
   id="svg2827"
   sodipodi:docname="chicgaucheorange.svg"
   inkscape:version="1.0 (4035a4fb49, 2020-05-01)">
  <defs
     id="defs2831">
    <meshgradient
       inkscape:collect="always"
       id="meshgradient3408" />
  </defs>
  <sodipodi:namedview
     pagecolor="#ffffff"
     bordercolor="#666666"
     borderopacity="1"
     objecttolerance="10"
     gridtolerance="10"
     guidetolerance="10"
     inkscape:pageopacity="0"
     inkscape:pageshadow="2"
     inkscape:window-width="1920"
     inkscape:window-height="1027"
     id="namedview2829"
     showgrid="false"
     inkscape:zoom="2.7088235"
     inkscape:cx="226.66667"
     inkscape:cy="52"
     inkscape:window-x="-8"
     inkscape:window-y="-8"
     inkscape:window-maximized="1"
     inkscape:current-layer="svg2827" />
  <metadata
     id="metadata2821">
Created by potrace 1.16, written by Peter Selinger 2001-2019
<rdf:RDF>
  <cc:Work
     rdf:about="">
    <dc:format>image/svg+xml</dc:format>
    <dc:type
       rdf:resource="http://purl.org/dc/dcmitype/StillImage" />
    <dc:title></dc:title>
  </cc:Work>
</rdf:RDF>
</metadata>
  <g
     transform="translate(0.000000,78.000000) scale(0.100000,-0.100000)"
     fill="#000000"
     stroke="none"
     id="g2825">
    <path
       d="M2755 520 c-260 -21 -1031 -46 -1730 -56 -247 -4 -459 -10 -469 -14 -11 -4 185 -10 435 -14 596 -8 1064 -22 1494 -43 421 -21 411 -21 505 6 41 12 121 27 178 33 56 7 102 15 102 19 0 4 -38 10 -85 14 -47 4 -126 18 -177 31 -120 32 -134 33 -253 24z"
       id="path2823" />
  </g>
  <path
     style="fill:#a0a0a0;stroke:none;stroke-width:0.369164"
     d="M 365.70118,53.095819 C 361.86777,52.920047 350.07299,52.352515 339.49054,51.834637 275.11114,48.68407 227.45732,47.21749 146.92725,45.908368 111.73639,45.336293 86.621636,44.737488 79.37025,44.297622 l -4.245386,-0.257524 4.983714,-0.270869 c 7.256518,-0.394397 27.795762,-0.931096 52.052112,-1.360142 71.80846,-1.270149 102.72983,-2.004326 148.5885,-3.527988 36.66785,-1.218295 66.03029,-2.567466 84.35396,-3.875967 17.16688,-1.225895 20.2098,-1.01108 33.22475,2.345503 8.16442,2.105621 17.1956,3.771652 25.47232,4.699018 8.07592,0.904869 11.44408,1.441622 11.44408,1.823742 0,0.402678 -5.02455,1.297538 -13.47572,2.399993 -8.72615,1.138327 -15.94322,2.461043 -21.53467,3.946786 -10.78465,2.865661 -11.1178,2.917627 -19.62588,3.061248 -4.36536,0.07369 -11.07344,-0.0098 -14.90685,-0.185603 z"
     id="path3394"
     transform="scale(0.74999999)" />
  <path
     style="fill:#a0a0a0;stroke:none;stroke-width:0.369164"
     d=""
     id="path3396"
     transform="scale(0.74999999)" />
  <path
     style="fill:#a0a0a0;stroke:none;stroke-width:0.369164"
     d=""
     id="path3398"
     transform="scale(0.74999999)" />
  <path
     style="fill:#6e4ccc;stroke:none;stroke-width:0.369164;fill-opacity:1"
     d=""
     id="path3400"
     transform="scale(0.74999999)" />
  <path
     style="fill:#cc8027;stroke:#cc8027;stroke-width:0.369164;fill-opacity:1;stroke-opacity:1"
     d="M 353.10532,52.364005 C 292.53327,49.143309 235.66025,47.275131 156.7101,45.912773 112.01773,45.141564 78.40515,44.336754 78.717777,44.045349 c 0.371373,-0.346164 72.354433,-2.007781 87.129133,-2.011241 3.60396,-8.44e-4 6.55266,-0.126128 6.55266,-0.278408 0,-0.15228 3.94544,-0.276873 8.76764,-0.276873 18.18204,0 73.40168,-1.427522 114.16395,-2.951333 7.81705,-0.292224 17.32763,-0.645496 21.13464,-0.785048 3.807,-0.139553 6.92182,-0.389016 6.92182,-0.554364 0,-0.165347 0.26959,-0.197181 0.59909,-0.07074 0.72545,0.278383 22.65683,-0.648733 22.66162,-0.957986 0.002,-0.119892 2.203,-0.24895 4.89143,-0.286794 2.68842,-0.03784 8.54276,-0.328025 13.00964,-0.644845 10.48411,-0.7436 19.05312,-0.746862 23.30127,-0.0089 1.80319,0.313252 6.68407,1.382177 10.8464,2.375388 9.56588,2.282604 13.56951,3.075045 14.23866,2.818268 0.29034,-0.111416 0.5279,-0.06797 0.5279,0.09655 0,0.392124 8.63917,1.667362 9.59763,1.416718 0.40643,-0.106283 0.73896,-0.06561 0.73896,0.09038 0,0.155993 1.12133,0.397664 2.49185,0.537048 4.34712,0.442109 7.84474,1.036063 7.84474,1.332169 0,0.346741 -2.25032,0.747844 -12.36699,2.20433 -11.36735,1.636545 -15.1315,2.361223 -24.26077,4.670714 l -8.22566,2.080901 -11.62867,0.104851 c -7.8073,0.07039 -15.87462,-0.120913 -24.5494,-0.582163 z"
     id="path3402"
     transform="scale(0.74999999)" />
  <path
     style="fill:#a0a0a0;stroke:url(#meshgradient3408);stroke-width:0.369164"
     d=""
     id="path3404"
     transform="scale(0.74999999)" />
</svg>
