<?xml version="1.0" standalone="no"?>
<!DOCTYPE svg PUBLIC "-//W3C//DTD SVG 20010904//EN"
 "http://www.w3.org/TR/2001/REC-SVG-20010904/DTD/svg10.dtd">
<svg version="1.0" xmlns="http://www.w3.org/2000/svg"
 width="347.000000pt" height="78.000000pt" viewBox="0 0 347.000000 78.000000"
 preserveAspectRatio="xMidYMid meet">
<metadata>
Created by potrace 1.16, written by Peter Selinger 2001-2019
</metadata>
<g transform="translate(0.000000,78.000000) scale(0.100000,-0.100000)"
fill="#000000" stroke="none">
<path d="M503 490 c-54 -19 -227 -50 -282 -50 -17 0 -31 -4 -31 -8 0 -4 48
-13 107 -20 59 -7 110 -16 113 -20 3 -4 39 -17 80 -29 68 -19 86 -21 195 -13
175 13 572 30 691 30 56 0 104 4 106 9 3 8 889 31 1218 31 117 0 170 4 160 10
-8 5 -105 10 -220 10 -503 1 -1820 42 -2040 65 -29 3 -63 -2 -97 -15z"/>
</g>
</svg>
