<?xml version="1.0" encoding="UTF-8" standalone="no"?>
<svg
   xmlns:dc="http://purl.org/dc/elements/1.1/"
   xmlns:cc="http://creativecommons.org/ns#"
   xmlns:rdf="http://www.w3.org/1999/02/22-rdf-syntax-ns#"
   xmlns:svg="http://www.w3.org/2000/svg"
   xmlns="http://www.w3.org/2000/svg"
   xmlns:sodipodi="http://sodipodi.sourceforge.net/DTD/sodipodi-0.dtd"
   xmlns:inkscape="http://www.inkscape.org/namespaces/inkscape"
   inkscape:version="1.0 (4035a4fb49, 2020-05-01)"
   sodipodi:docname="chicdroitviolet.svg"
   id="svg2612"
   preserveAspectRatio="xMidYMid meet"
   viewBox="0 0 347.000000 78.000000"
   height="78.000000pt"
   width="347.000000pt"
   version="1.0">
  <defs
     id="defs2616" />
  <sodipodi:namedview
     inkscape:current-layer="svg2612"
     inkscape:window-maximized="1"
     inkscape:window-y="-8"
     inkscape:window-x="-8"
     inkscape:cy="52"
     inkscape:cx="231.33333"
     inkscape:zoom="2.6541787"
     showgrid="false"
     id="namedview2614"
     inkscape:window-height="1027"
     inkscape:window-width="1920"
     inkscape:pageshadow="2"
     inkscape:pageopacity="0"
     guidetolerance="10"
     gridtolerance="10"
     objecttolerance="10"
     borderopacity="1"
     bordercolor="#666666"
     pagecolor="#ffffff" />
  <metadata
     id="metadata2606">
Created by potrace 1.16, written by Peter Selinger 2001-2019
<rdf:RDF>
  <cc:Work
     rdf:about="">
    <dc:format>image/svg+xml</dc:format>
    <dc:type
       rdf:resource="http://purl.org/dc/dcmitype/StillImage" />
    <dc:title></dc:title>
  </cc:Work>
</rdf:RDF>
</metadata>
  <g
     style="fill:#ab70a0;fill-opacity:1"
     id="g2610"
     stroke="none"
     fill="#000000"
     transform="matrix(0.1,0,0,-0.1,0,78)">
    <path
       style="fill:#ab70a0;fill-opacity:1"
       id="path2608"
       d="m 503,490 c -54,-19 -227,-50 -282,-50 -17,0 -31,-4 -31,-8 0,-4 48,-13 107,-20 59,-7 110,-16 113,-20 3,-4 39,-17 80,-29 68,-19 86,-21 195,-13 175,13 572,30 691,30 56,0 104,4 106,9 3,8 889,31 1218,31 117,0 170,4 160,10 -8,5 -105,10 -220,10 -503,1 -1820,42 -2040,65 -29,3 -63,-2 -97,-15 z" />
  </g>
</svg>
