<?xml version="1.0" encoding="UTF-8" standalone="no"?>
<svg
   xmlns:dc="http://purl.org/dc/elements/1.1/"
   xmlns:cc="http://creativecommons.org/ns#"
   xmlns:rdf="http://www.w3.org/1999/02/22-rdf-syntax-ns#"
   xmlns:svg="http://www.w3.org/2000/svg"
   xmlns="http://www.w3.org/2000/svg"
   xmlns:sodipodi="http://sodipodi.sourceforge.net/DTD/sodipodi-0.dtd"
   xmlns:inkscape="http://www.inkscape.org/namespaces/inkscape"
   inkscape:version="1.0 (4035a4fb49, 2020-05-01)"
   sodipodi:docname="chicgaucheorange.svg"
   id="svg3206"
   preserveAspectRatio="xMidYMid meet"
   viewBox="0 0 340.000000 78.000000"
   height="78.000000pt"
   width="340.000000pt"
   version="1.0">
  <defs
     id="defs3210" />
  <sodipodi:namedview
     inkscape:current-layer="svg3206"
     inkscape:window-maximized="1"
     inkscape:window-y="-8"
     inkscape:window-x="-8"
     inkscape:cy="52"
     inkscape:cx="226.66667"
     inkscape:zoom="2.7088235"
     showgrid="false"
     id="namedview3208"
     inkscape:window-height="1027"
     inkscape:window-width="1920"
     inkscape:pageshadow="2"
     inkscape:pageopacity="0"
     guidetolerance="10"
     gridtolerance="10"
     objecttolerance="10"
     borderopacity="1"
     bordercolor="#666666"
     pagecolor="#ffffff" />
  <metadata
     id="metadata3200">
Created by potrace 1.16, written by Peter Selinger 2001-2019
<rdf:RDF>
  <cc:Work
     rdf:about="">
    <dc:format>image/svg+xml</dc:format>
    <dc:type
       rdf:resource="http://purl.org/dc/dcmitype/StillImage" />
    <dc:title></dc:title>
  </cc:Work>
</rdf:RDF>
</metadata>
  <g
     style="fill:#cc8027;fill-opacity:1"
     id="g3204"
     stroke="none"
     fill="#000000"
     transform="matrix(0.1,0,0,-0.1,0,78)">
    <path
       style="fill:#cc8027;fill-opacity:1"
       id="path3202"
       d="M 2755,520 C 2495,499 1724,474 1025,464 778,460 566,454 556,450 c -11,-4 185,-10 435,-14 596,-8 1064,-22 1494,-43 421,-21 411,-21 505,6 41,12 121,27 178,33 56,7 102,15 102,19 0,4 -38,10 -85,14 -47,4 -126,18 -177,31 -120,32 -134,33 -253,24 z" />
  </g>
</svg>
