<?xml version="1.0" encoding="UTF-8" standalone="no"?>
<svg
   xmlns:dc="http://purl.org/dc/elements/1.1/"
   xmlns:cc="http://creativecommons.org/ns#"
   xmlns:rdf="http://www.w3.org/1999/02/22-rdf-syntax-ns#"
   xmlns:svg="http://www.w3.org/2000/svg"
   xmlns="http://www.w3.org/2000/svg"
   xmlns:sodipodi="http://sodipodi.sourceforge.net/DTD/sodipodi-0.dtd"
   xmlns:inkscape="http://www.inkscape.org/namespaces/inkscape"
   inkscape:version="1.0 (4035a4fb49, 2020-05-01)"
   sodipodi:docname="chicgaucheviolet.svg"
   id="svg1434"
   preserveAspectRatio="xMidYMid meet"
   viewBox="0 0 252.000000 55.000000"
   height="55.000000pt"
   width="252.000000pt"
   version="1.0">
  <defs
     id="defs1438" />
  <sodipodi:namedview
     inkscape:current-layer="svg1434"
     inkscape:window-maximized="1"
     inkscape:window-y="-8"
     inkscape:window-x="-8"
     inkscape:cy="36.666667"
     inkscape:cx="168"
     inkscape:zoom="3.6547619"
     showgrid="false"
     id="namedview1436"
     inkscape:window-height="1027"
     inkscape:window-width="1920"
     inkscape:pageshadow="2"
     inkscape:pageopacity="0"
     guidetolerance="10"
     gridtolerance="10"
     objecttolerance="10"
     borderopacity="1"
     bordercolor="#666666"
     pagecolor="#ffffff" />
  <metadata
     id="metadata1428">
Created by potrace 1.16, written by Peter Selinger 2001-2019
<rdf:RDF>
  <cc:Work
     rdf:about="">
    <dc:format>image/svg+xml</dc:format>
    <dc:type
       rdf:resource="http://purl.org/dc/dcmitype/StillImage" />
    <dc:title></dc:title>
  </cc:Work>
</rdf:RDF>
</metadata>
  <g
     style="fill:#6e4ccc;fill-opacity:1"
     id="g1432"
     stroke="none"
     fill="#000000"
     transform="matrix(0.14580339,0,0,-0.1291247,-102.86601,63.489686)">
    <path
       style="fill:#6e4ccc;fill-opacity:1"
       id="path1430"
       d="m 2025,359 c -95,-10 -570,-27 -990,-35 -165,-4 -306,-10 -313,-14 -8,-4 125,-10 295,-13 493,-11 910,-26 1020,-37 84,-9 108,-8 130,3 16,8 67,21 115,28 48,7 84,16 80,20 -4,3 -43,12 -87,19 -44,7 -92,19 -107,26 -15,8 -35,13 -45,13 -10,-1 -54,-5 -98,-10 z" />
  </g>
</svg>
