<?xml version="1.0" encoding="UTF-8" standalone="no"?>
<svg
   xmlns:dc="http://purl.org/dc/elements/1.1/"
   xmlns:cc="http://creativecommons.org/ns#"
   xmlns:rdf="http://www.w3.org/1999/02/22-rdf-syntax-ns#"
   xmlns:svg="http://www.w3.org/2000/svg"
   xmlns="http://www.w3.org/2000/svg"
   xmlns:xlink="http://www.w3.org/1999/xlink"
   xmlns:sodipodi="http://sodipodi.sourceforge.net/DTD/sodipodi-0.dtd"
   xmlns:inkscape="http://www.inkscape.org/namespaces/inkscape"
   inkscape:version="1.0 (4035a4fb49, 2020-05-01)"
   sodipodi:docname="melodie.svg"
   id="svg28"
   preserveAspectRatio="xMidYMid meet"
   viewBox="0 0 60.000000 45.000000"
   height="45.000000pt"
   width="60.000000pt"
   version="1.0">
  <defs
     id="defs32">
    <linearGradient
       inkscape:collect="always"
       id="linearGradient883">
      <stop
         style="stop-color:#f05961;stop-opacity:1"
         offset="0"
         id="stop879" />
      <stop
         style="stop-color:#f78f6a;stop-opacity:1"
         offset="1"
         id="stop881" />
    </linearGradient>
    <linearGradient
       gradientUnits="userSpaceOnUse"
       y2="661.38196"
       x2="685.75812"
       y1="683.95392"
       x1="615.89246"
       id="linearGradient40"
       xlink:href="#linearGradient883"
       inkscape:collect="always" />
    <linearGradient
       gradientUnits="userSpaceOnUse"
       y2="421.51944"
       x2="896.50745"
       y1="421.51944"
       x1="243.09122"
       id="linearGradient891"
       xlink:href="#linearGradient883"
       inkscape:collect="always" />
  </defs>
  <sodipodi:namedview
     inkscape:current-layer="svg28"
     inkscape:window-maximized="1"
     inkscape:window-y="-8"
     inkscape:window-x="-8"
     inkscape:cy="30"
     inkscape:cx="26.206015"
     inkscape:zoom="13.955358"
     showgrid="false"
     id="namedview30"
     inkscape:window-height="1027"
     inkscape:window-width="1920"
     inkscape:pageshadow="2"
     inkscape:pageopacity="0"
     guidetolerance="10"
     gridtolerance="10"
     objecttolerance="10"
     borderopacity="1"
     bordercolor="#666666"
     pagecolor="#ffffff" />
  <metadata
     id="metadata22">
Created by potrace 1.10, written by Peter Selinger 2001-2011
<rdf:RDF>
  <cc:Work
     rdf:about="">
    <dc:format>image/svg+xml</dc:format>
    <dc:type
       rdf:resource="http://purl.org/dc/dcmitype/StillImage" />
    <dc:title></dc:title>
  </cc:Work>
</rdf:RDF>
</metadata>
  <g
     id="g26"
     stroke="none"
     fill="#000000"
     transform="translate(0.000000,45.000000) scale(0.050000,-0.050000)">
    <path
       style="fill-opacity:1;fill:url(#linearGradient40);stroke:url(#linearGradient891);stroke-opacity:1"
       id="path24"
       d="M626 720 c-236 -62 -226 -49 -226 -290 0 -178 -4 -207 -30 -197 -48 18 -133 -49 -126 -99 5 -35 21 -45 79 -50 111 -9 137 42 137 268 l0 184 95 21 c52 11 138 26 190 33 l95 12 0 -156 c0 -153 -1 -156 -50 -159 -102 -6 -150 -104 -71 -146 43 -23 127 0 153 42 8 14 17 149 20 301 l4 276 -63 -1 c-35 -1 -128 -18 -207 -39z m214 -46 c0 -18 -50 -35 -145 -51 -80 -13 -172 -29 -205 -36 -104 -21 -30 26 110 70 153 48 240 54 240 17z" />
  </g>
</svg>
