<?xml version="1.0" encoding="UTF-8" standalone="no"?>
<svg
   xmlns:dc="http://purl.org/dc/elements/1.1/"
   xmlns:cc="http://creativecommons.org/ns#"
   xmlns:rdf="http://www.w3.org/1999/02/22-rdf-syntax-ns#"
   xmlns:svg="http://www.w3.org/2000/svg"
   xmlns="http://www.w3.org/2000/svg"
   xmlns:sodipodi="http://sodipodi.sourceforge.net/DTD/sodipodi-0.dtd"
   xmlns:inkscape="http://www.inkscape.org/namespaces/inkscape"
   inkscape:version="1.0 (4035a4fb49, 2020-05-01)"
   sodipodi:docname="notedroite.svg"
   id="svg28"
   preserveAspectRatio="xMidYMid meet"
   viewBox="0 0 302.000000 94.000000"
   height="94.000000pt"
   width="302.000000pt"
   version="1.0">
  <defs
     id="defs32">
    <filter
       id="filter52"
       inkscape:label="Colorize"
       style="color-interpolation-filters:sRGB;">
      <feComposite
         id="feComposite38"
         result="composite1"
         k2="1"
         k1="0"
         operator="arithmetic"
         in2="SourceGraphic" />
      <feColorMatrix
         id="feColorMatrix40"
         result="colormatrix1"
         type="saturate"
         values="1"
         in="composite1" />
      <feFlood
         id="feFlood42"
         result="flood1"
         flood-color="rgb(61,19,25)"
         flood-opacity="1" />
      <feBlend
         id="feBlend44"
         result="blend1"
         mode="multiply"
         in2="colormatrix1"
         in="flood1" />
      <feBlend
         id="feBlend46"
         result="blend2"
         mode="screen"
         in2="blend1" />
      <feColorMatrix
         id="feColorMatrix48"
         result="colormatrix2"
         type="saturate"
         values="1"
         in="blend2" />
      <feComposite
         id="feComposite50"
         result="fbSourceGraphic"
         k2="1"
         operator="in"
         in2="SourceGraphic"
         in="colormatrix2" />
      <feColorMatrix
         id="feColorMatrix54"
         values="0 0 0 -1 0 0 0 0 -1 0 0 0 0 -1 0 0 0 0 1 0"
         in="fbSourceGraphic"
         result="fbSourceGraphicAlpha" />
      <feComposite
         in="fbSourceGraphic"
         result="composite1"
         k2="1"
         k1="0"
         operator="arithmetic"
         id="feComposite56"
         in2="fbSourceGraphic" />
      <feColorMatrix
         result="colormatrix1"
         type="saturate"
         values="1"
         in="composite1"
         id="feColorMatrix58" />
      <feFlood
         result="flood1"
         flood-color="rgb(61,19,25)"
         flood-opacity="1"
         id="feFlood60" />
      <feBlend
         result="blend1"
         mode="multiply"
         in="flood1"
         id="feBlend62"
         in2="colormatrix1" />
      <feBlend
         result="blend2"
         mode="screen"
         id="feBlend64"
         in2="blend1" />
      <feColorMatrix
         result="colormatrix2"
         type="saturate"
         values="1"
         in="blend2"
         id="feColorMatrix66" />
      <feComposite
         result="fbSourceGraphic"
         k2="1"
         operator="in"
         in="colormatrix2"
         id="feComposite68"
         in2="fbSourceGraphic" />
      <feColorMatrix
         id="feColorMatrix70"
         values="0 0 0 -1 0 0 0 0 -1 0 0 0 0 -1 0 0 0 0 1 0"
         in="fbSourceGraphic"
         result="fbSourceGraphicAlpha" />
      <feComposite
         in="fbSourceGraphic"
         result="composite1"
         k2="1"
         k1="0"
         operator="arithmetic"
         id="feComposite72"
         in2="fbSourceGraphic" />
      <feColorMatrix
         result="colormatrix1"
         type="saturate"
         values="1"
         in="composite1"
         id="feColorMatrix74" />
      <feFlood
         result="flood1"
         flood-color="rgb(61,19,25)"
         flood-opacity="1"
         id="feFlood76" />
      <feBlend
         result="blend1"
         mode="multiply"
         in="flood1"
         id="feBlend78"
         in2="colormatrix1" />
      <feBlend
         result="blend2"
         mode="screen"
         id="feBlend80"
         in2="blend1" />
      <feColorMatrix
         result="colormatrix2"
         type="saturate"
         values="1"
         in="blend2"
         id="feColorMatrix82" />
      <feComposite
         result="composite2"
         k2="1"
         operator="in"
         in="colormatrix2"
         id="feComposite84"
         in2="fbSourceGraphic" />
    </filter>
    <filter
       height="8.660837"
       y="-3.8304185"
       width="1.2035098"
       x="-0.10175491"
       id="filter937"
       style="color-interpolation-filters:sRGB"
       inkscape:collect="always">
      <feGaussianBlur
         id="feGaussianBlur939"
         stdDeviation="16.314095"
         inkscape:collect="always" />
    </filter>
  </defs>
  <sodipodi:namedview
     inkscape:current-layer="svg28"
     inkscape:window-maximized="1"
     inkscape:window-y="-8"
     inkscape:window-x="-8"
     inkscape:cy="75.521149"
     inkscape:cx="139.47114"
     inkscape:zoom="3.111755"
     inkscape:snap-global="false"
     showgrid="false"
     id="namedview30"
     inkscape:window-height="1027"
     inkscape:window-width="1920"
     inkscape:pageshadow="2"
     inkscape:pageopacity="0"
     guidetolerance="10"
     gridtolerance="10"
     objecttolerance="10"
     borderopacity="1"
     bordercolor="#666666"
     pagecolor="#ffffff" />
  <metadata
     id="metadata22">
Created by potrace 1.16, written by Peter Selinger 2001-2019
<rdf:RDF>
  <cc:Work
     rdf:about="">
    <dc:format>image/svg+xml</dc:format>
    <dc:type
       rdf:resource="http://purl.org/dc/dcmitype/StillImage" />
  </cc:Work>
</rdf:RDF>
</metadata>
  <g
     id="g26"
     stroke="none"
     fill="#000000"
     transform="translate(0.000000,94.000000) scale(0.100000,-0.100000)">
    <path
       id="path24"
       d="M103 572 c-41 -3 -64 -25 -44 -45 11 -11 249 -23 776 -37 553 -15 2117 -10 2122 7 2 6 -8 20 -23 30 -26 16 -68 19 -509 25 -264 3 -822 9 -1240 12 -418 4 -823 7 -900 9 -77 2 -159 1 -182 -1z" />
  </g>
  <path
     transform="scale(0.75)"
     id="path34"
     d="M 181.40889,60.838543 C 116.42015,60.488812 24.261235,57.640141 10.799427,55.564932 8.2524173,55.172298 7.6169612,54.842618 7.3489569,53.774804 6.9771269,52.293316 7.5837656,51.345042 9.5450078,50.342026 11.244408,49.47292 11.731955,49.3907 16.770677,49.123485 c 3.268055,-0.173312 14.419892,-0.15687 28.220012,0.04161 12.549189,0.180486 48.051663,0.544243 78.894391,0.808348 176.21388,1.508916 236.13707,2.235097 252.87804,3.06451 10.04083,0.497461 12.65379,0.963628 14.86813,2.652547 1.28651,0.981268 2.7697,2.976566 2.45013,3.296133 -1.45281,1.452823 -110.45449,2.401989 -212.67249,1.851912 z"
     style="fill:#a0a0a0;stroke:none;stroke-width:0.321362" />
  <path
     transform="scale(0.75)"
     id="path36"
     d="M 151.84358,60.411383 C 99.448489,59.569915 46.227088,57.914489 22.495345,56.388066 13.725714,55.824005 10.095777,55.406904 8.6312967,54.795004 7.7086042,54.409479 7.5520085,54.186603 7.5520085,53.258902 c 0,-1.195046 0.7258301,-2.043085 2.5296245,-2.95554 2.588104,-1.309201 2.845505,-1.310723 82.631323,-0.488877 16.879544,0.17387 55.491194,0.532505 85.803674,0.796967 133.40597,1.163901 187.12871,1.9014 201.01197,2.759467 6.37576,0.394059 9.34508,0.933127 11.23247,2.039205 1.54482,0.905329 3.28863,2.9869 2.8607,3.414823 -0.40279,0.40279 -13.30725,0.905319 -33.3749,1.299696 -21.33577,0.419299 -186.03894,0.645912 -208.40329,0.28674 z"
     style="fill:#a0a0a0;stroke:none;stroke-width:0.321362;filter:url(#filter52);fill-opacity:1" />
  <path
     transform="scale(0.75)"
     id="path86"
     d="M 148.14791,60.223898 C 146.02692,60.169228 136.62708,59.969277 127.25938,59.779561 66.677856,58.552658 14.976132,56.427334 9.801543,54.951173 8.0713487,54.457599 7.8152485,54.191271 7.9298715,53.004756 8.0724657,51.528697 9.9368419,50.234783 12.533121,49.81001 c 2.491245,-0.407589 28.020451,-0.405485 66.584789,0.0055 16.756606,0.178572 69.58435,0.683368 117.39499,1.121768 175.57967,1.609981 188.9975,1.926084 193.84933,4.566788 1.51917,0.826832 3.43449,2.80314 3.06997,3.167685 -0.25995,0.259933 -10.55437,0.746034 -23.70514,1.119352 -10.81557,0.307027 -211.26859,0.698569 -221.57915,0.432807 z"
     style="fill:#a0a0a0;fill-opacity:1;stroke-width:0.321362" />
  <path
     transform="scale(0.75)"
     id="path88"
     d="M 131.43708,59.74866 C 54.973628,57.983201 12.690257,56.175863 9.1588188,54.522064 8.0284541,53.992706 7.9250645,52.623534 8.9388989,51.6097 10.731022,49.817576 10.822541,49.812139 39.184159,49.812698 c 14.328788,2.83e-4 55.770297,0.285579 92.092241,0.633993 36.32195,0.348413 81.5858,0.78342 100.58633,0.966683 122.56155,1.182121 147.46804,1.705279 155.21788,3.260335 2.16604,0.434631 3.71655,1.198418 5.1488,2.536351 0.86726,0.810133 0.99435,1.070481 0.62186,1.273775 -1.18187,0.645024 -18.12745,1.04204 -55.09974,1.290926 -48.79342,0.328463 -191.74125,0.310378 -206.31445,-0.0261 z"
     style="fill:#a0a0a0;fill-opacity:1;stroke-width:0.321362" />
  <path
     transform="scale(0.75)"
     id="path90"
     d="M 131.43708,59.74866 C 54.81082,57.979441 12.697776,56.179384 9.1588188,54.522064 8.0284541,53.992706 7.9250645,52.623534 8.9388989,51.6097 10.730978,49.817621 10.822703,49.81217 39.184159,49.812344 c 14.328788,8.8e-5 55.770297,0.285368 92.092241,0.633956 36.32195,0.348587 81.5858,0.783754 100.58633,0.967037 122.57035,1.182337 147.46804,1.705317 155.21788,3.260372 2.16604,0.434631 3.71655,1.198418 5.1488,2.536351 0.86726,0.810133 0.99435,1.070481 0.62186,1.273775 -1.18187,0.645024 -18.12745,1.04204 -55.09974,1.290926 -48.79342,0.328463 -191.74125,0.310378 -206.31445,-0.0261 z"
     style="fill:#a0a0a0;fill-opacity:1;stroke-width:0.321362" />
  <path
     transform="scale(0.75)"
     id="path92"
     d="M 131.43708,59.750849 C 100.70291,59.050024 68.598631,58.155022 57.52381,57.690297 55.226071,57.593878 49.875392,57.370289 45.633413,57.193432 23.980482,56.290676 10.844804,55.333691 9.1780684,54.53752 7.5248112,53.747787 8.0334034,51.862251 10.213991,50.696979 l 1.355043,-0.724114 24.262836,-0.09659 c 21.272392,-0.08468 60.668116,0.224173 196.83426,1.543145 121.95813,1.181346 146.68026,1.702365 154.41448,3.254286 2.16604,0.434631 3.71655,1.198418 5.1488,2.536351 0.86947,0.812195 0.99529,1.070801 0.62186,1.277912 -1.15606,0.641153 -18.13995,1.037755 -55.09974,1.286669 -48.54994,0.32697 -191.65574,0.310468 -206.31445,-0.02379 z"
     style="fill:#a0a0a0;fill-opacity:1;stroke-width:0.321362" />
  <path
     transform="scale(0.75)"
     id="path94"
     d="m 141.53321,59.978769 c -0.0736,-0.06435 -5.7015,-0.212544 -12.50634,-0.329321 C 71.712623,58.665894 12.536641,56.141852 9.1780684,54.53752 7.5248112,53.747787 8.0334034,51.862251 10.213991,50.696979 l 1.355043,-0.724114 20.727853,-0.10846 c 18.875137,-0.09877 90.613453,0.362233 116.493753,0.748602 5.83272,0.08708 20.29401,0.236645 32.1362,0.332373 114.38364,0.924635 181.24689,1.860931 196.19154,2.7473 9.15178,0.542794 11.51293,0.979891 13.92552,2.577931 1.93778,1.283541 2.4499,2.134795 1.42659,2.371293 -4.05016,0.936036 -58.93693,1.390318 -172.52494,1.42794 -43.05314,0.01426 -78.3387,-0.02673 -78.41234,-0.09108 z"
     style="fill:#3d1319;fill-opacity:0;stroke-width:0.321;stroke-miterlimit:4;stroke-dasharray:none;stroke:none;stroke-opacity:1;filter:url(#filter937)" />
  <path
     transform="scale(0.75)"
     id="path96"
     d="M 137.38228,59.873394 C 70.458745,58.608101 12.663971,56.202675 9.1780684,54.53752 7.5248112,53.747787 8.0334034,51.862251 10.213991,50.696979 l 1.355043,-0.724114 21.531259,-0.105394 c 20.08143,-0.0983 58.150851,0.158116 135.454107,0.912341 17.58654,0.171586 47.3045,0.459049 66.03991,0.638806 124.46998,1.194228 146.98782,1.712187 153.77669,3.537196 1.47914,0.397632 4.03326,2.029305 4.47834,2.860954 0.30016,0.560798 0.24498,0.680968 -0.37885,0.825136 -4.17115,0.963992 -62.00816,1.421197 -171.85543,1.358525 -43.39192,-0.02476 -80.84666,-0.08192 -83.23278,-0.127035 z"
     style="fill:#000000;fill-opacity:0;stroke-width:0.321362" />
  <path
     transform="scale(0.75)"
     id="path941"
     d="m 141.69389,59.97923 c -0.0737,-0.0641 -5.7015,-0.211937 -12.50634,-0.328533 C 92.512577,59.022296 44.218655,57.388592 23.29875,56.068653 8.3304762,55.124232 6.4984021,54.578771 8.8615747,51.770301 c 1.6692743,-1.98382 1.2617683,-1.958344 31.2866703,-1.955948 24.116536,0.0019 54.255377,0.222586 107.196265,0.784835 9.0142,0.09573 24.77701,0.25268 35.02846,0.348769 184.10711,1.725673 200.02163,2.049041 206.55142,4.196927 0.83734,0.275429 2.21116,1.127084 3.05294,1.892568 1.50201,1.365859 1.51554,1.395255 0.72711,1.57796 -4.1571,0.963328 -58.16839,1.417814 -172.91957,1.455057 -42.87639,0.01391 -78.01734,-0.02714 -78.09098,-0.09124 z"
     style="fill:#a0a0a0;stroke:none;stroke-width:0.321362" />
  <path
     transform="scale(0.75)"
     id="path943"
     d="M 131.11572,59.761267 C 67.07425,58.362723 17.057211,56.354899 10.644566,54.925218 7.8231789,54.296198 7.3864363,53.523403 8.8615747,51.770301 10.533677,49.78312 10.060517,49.812129 40.790969,49.81271 c 15.300909,2.89e-4 42.136512,0.144286 59.634681,0.319993 17.49816,0.175707 55.16983,0.536584 83.71481,0.801949 178.11862,1.655861 198.27554,2.069616 204.76243,4.203094 1.82582,0.600498 4.72306,3.008963 4.06359,3.378034 -1.09552,0.613071 -18.22807,1.009384 -54.41155,1.258654 -46.60768,0.321083 -192.5576,0.311819 -207.43921,-0.01317 z"
     style="fill:#a0a0a0;stroke:none;stroke-width:0.321362" />
  <path
     transform="scale(0.75)"
     id="path945"
     d="M 129.99096,59.749846 C 76.13443,58.589041 27.84384,56.779198 14.719681,55.42969 8.145324,54.753674 6.9700953,54.018196 8.8652746,51.765903 c 0.560867,-0.666552 1.4231844,-1.160552 2.6512374,-1.518827 1.668936,-0.486899 5.621344,-0.514656 47.614108,-0.334382 25.186752,0.108125 67.70295,0.416591 94.48045,0.685479 26.77749,0.268888 70.73982,0.708374 97.69406,0.976637 111.58835,1.110583 131.72686,1.632047 137.59776,3.562936 1.86149,0.612226 4.72351,3.008715 4.04598,3.387873 -1.08485,0.607125 -17.45529,0.984637 -53.91189,1.243241 -47.06192,0.333834 -193.29249,0.320533 -209.04602,-0.01901 z"
     style="fill:#a0a0a0;stroke:none;stroke-width:0.321362" />
  <path
     transform="scale(0.75)"
     id="path947"
     d="M 136.25752,59.873231 C 101.93849,59.27688 51.096244,57.6347 28.279862,56.385606 14.801941,55.647751 10.270553,55.164217 8.6360533,54.289459 7.0610345,53.446535 8.768942,51.049134 11.516512,50.246142 c 1.671941,-0.488634 5.72874,-0.515164 49.863642,-0.326082 26.423996,0.113204 61.131096,0.348303 77.126896,0.522441 15.9958,0.174138 45.1353,0.466292 64.75446,0.64923 148.23198,1.382189 176.08909,1.924076 184.08181,3.580831 1.95137,0.404484 3.86859,1.443967 5.15031,2.792402 0.83017,0.873421 0.85964,0.978731 0.32136,1.149392 -3.10082,0.983097 -61.20459,1.450297 -172.36061,1.385915 -43.74541,-0.02534 -81.634,-0.08251 -84.19686,-0.12704 z"
     style="fill:#a0a0a0;stroke:none;stroke-width:0.321362" />
  <path
     transform="scale(0.75)"
     id="path949"
     d="M 129.18755,59.755305 C 70.852356,58.529944 16.946763,56.339198 10.703556,54.940066 7.8180413,54.293409 7.3770593,53.534547 8.8615747,51.770301 c 1.6801123,-1.9967 1.0224273,-1.958566 33.6968853,-1.95381 26.466307,0.0039 53.417365,0.195263 112.01669,0.795561 10.16308,0.104112 40.74871,0.39901 67.96808,0.65533 129.59398,1.220363 157.15007,1.792491 164.84531,3.42257 2.12863,0.450904 3.62872,1.242125 4.93586,2.603386 1.36126,1.417634 1.27218,1.4519 -4.36583,1.679028 -2.42712,0.09778 -5.42524,0.261002 -6.66248,0.362722 -7.22981,0.594399 -226.42311,0.959753 -252.10854,0.420217 z"
     style="fill:#a0a0a0;stroke:none;stroke-width:0.321362" />
  <path
     transform="scale(0.75)"
     id="path951"
     d="M 128.38414,59.755048 C 88.264013,58.933877 42.394556,57.334157 22.656026,56.067728 10.918062,55.314618 8.0340516,54.784939 8.0340516,53.382253 c 0,-0.811302 1.1341895,-2.183644 2.3582504,-2.853425 0.950563,-0.520129 3.95731,-0.553743 46.649464,-0.521527 25.098378,0.01894 61.974674,0.201662 81.947324,0.406048 19.97266,0.204386 50.91982,0.513524 68.77148,0.686973 64.14179,0.62321 95.31668,0.949371 106.69221,1.116245 61.03723,0.895387 71.77156,1.371673 75.61971,3.355275 0.6522,0.336194 1.67028,1.115741 2.26242,1.732328 0.96013,0.999804 1.01226,1.141443 0.48204,1.309458 -1.66633,0.52801 -17.09248,0.92486 -44.13911,1.135516 -39.86011,0.310454 -205.19769,0.314886 -220.2937,0.0059 z"
     style="fill:#3d1319;stroke:none;stroke-width:0.321362;fill-opacity:1" />
  <path
     transform="scale(0.75)"
     id="path953"
     d=""
     style="fill:#a0a0a0;stroke:none;stroke-width:0.321362" />
  <path
     transform="scale(0.75)"
     id="path955"
     d="m 21.780774,48.933742 c 0.755856,-0.06789 1.91276,-0.06693 2.570897,0.0021 0.658137,0.06906 0.03971,0.124598 -1.374283,0.123431 -1.413993,-0.0012 -1.952469,-0.05767 -1.196614,-0.125552 z"
     style="fill:#a0a0a0;stroke:none;stroke-width:0.321362" />
</svg>
