<?xml version="1.0" encoding="UTF-8" standalone="no"?>
<svg
   xmlns:dc="http://purl.org/dc/elements/1.1/"
   xmlns:cc="http://creativecommons.org/ns#"
   xmlns:rdf="http://www.w3.org/1999/02/22-rdf-syntax-ns#"
   xmlns:svg="http://www.w3.org/2000/svg"
   xmlns="http://www.w3.org/2000/svg"
   xmlns:sodipodi="http://sodipodi.sourceforge.net/DTD/sodipodi-0.dtd"
   xmlns:inkscape="http://www.inkscape.org/namespaces/inkscape"
   inkscape:version="1.0 (4035a4fb49, 2020-05-01)"
   sodipodi:docname="notegauche.svg"
   id="svg855"
   preserveAspectRatio="xMidYMid meet"
   viewBox="0 0 299.000000 89.000000"
   height="89.000000pt"
   width="299.000000pt"
   version="1.0">
  <defs
     id="defs859" />
  <sodipodi:namedview
     inkscape:current-layer="svg855"
     inkscape:window-maximized="1"
     inkscape:window-y="-8"
     inkscape:window-x="-8"
     inkscape:cy="59.333333"
     inkscape:cx="199.33333"
     inkscape:zoom="3.0802676"
     showgrid="false"
     id="namedview857"
     inkscape:window-height="1027"
     inkscape:window-width="1920"
     inkscape:pageshadow="2"
     inkscape:pageopacity="0"
     guidetolerance="10"
     gridtolerance="10"
     objecttolerance="10"
     borderopacity="1"
     bordercolor="#666666"
     pagecolor="#ffffff" />
  <metadata
     id="metadata849">
Created by potrace 1.16, written by Peter Selinger 2001-2019
<rdf:RDF>
  <cc:Work
     rdf:about="">
    <dc:format>image/svg+xml</dc:format>
    <dc:type
       rdf:resource="http://purl.org/dc/dcmitype/StillImage" />
    <dc:title></dc:title>
  </cc:Work>
</rdf:RDF>
</metadata>
  <g
     style="fill:#3d1319;fill-opacity:1"
     id="g853"
     stroke="none"
     fill="#000000"
     transform="matrix(0.1,0,0,-0.1,0,89)">
    <path
       style="fill:#3d1319;fill-opacity:1"
       id="path851"
       d="M 111,563 C 70,555 40,529 40,504 v -24 l 233,1 c 127,0 286,4 352,8 66,4 489,2 940,-4 1093,-13 1340,-10 1352,22 3,8 2,18 -3,23 -17,15 -824,33 -1009,22 -158,-9 -1331,-1 -1650,12 -66,2 -131,2 -144,-1 z" />
  </g>
</svg>
