<?xml version="1.0" encoding="UTF-8" standalone="no"?>
<svg
   xmlns:dc="http://purl.org/dc/elements/1.1/"
   xmlns:cc="http://creativecommons.org/ns#"
   xmlns:rdf="http://www.w3.org/1999/02/22-rdf-syntax-ns#"
   xmlns:svg="http://www.w3.org/2000/svg"
   xmlns="http://www.w3.org/2000/svg"
   xmlns:sodipodi="http://sodipodi.sourceforge.net/DTD/sodipodi-0.dtd"
   xmlns:inkscape="http://www.inkscape.org/namespaces/inkscape"
   inkscape:version="1.0 (4035a4fb49, 2020-05-01)"
   sodipodi:docname="notegauche.svg"
   id="svg1035"
   preserveAspectRatio="xMidYMid meet"
   viewBox="0 0 299.000000 89.000000"
   height="89.000000pt"
   width="299.000000pt"
   version="1.0">
  <defs
     id="defs1039" />
  <sodipodi:namedview
     inkscape:current-layer="svg1035"
     inkscape:window-maximized="1"
     inkscape:window-y="-8"
     inkscape:window-x="-8"
     inkscape:cy="59.333333"
     inkscape:cx="136.83876"
     inkscape:zoom="3.0802676"
     showgrid="false"
     id="namedview1037"
     inkscape:window-height="1027"
     inkscape:window-width="1920"
     inkscape:pageshadow="2"
     inkscape:pageopacity="0"
     guidetolerance="10"
     gridtolerance="10"
     objecttolerance="10"
     borderopacity="1"
     bordercolor="#666666"
     pagecolor="#ffffff" />
  <metadata
     id="metadata1029">
Created by potrace 1.16, written by Peter Selinger 2001-2019
<rdf:RDF>
  <cc:Work
     rdf:about="">
    <dc:format>image/svg+xml</dc:format>
    <dc:type
       rdf:resource="http://purl.org/dc/dcmitype/StillImage" />
  </cc:Work>
</rdf:RDF>
</metadata>
  <g
     id="g1033"
     stroke="none"
     fill="#000000"
     transform="translate(0.000000,89.000000) scale(0.100000,-0.100000)">
    <path
       id="path1031"
       d="M111 563 c-41 -8 -71 -34 -71 -59 l0 -24 233 1 c127 0 286 4 352 8 66 4 489 2 940 -4 1093 -13 1340 -10 1352 22 3 8 2 18 -3 23 -17 15 -824 33 -1009 22 -158 -9 -1331 -1 -1650 12 -66 2 -131 2 -144 -1z" />
  </g>
  <path
     transform="scale(0.75000002)"
     id="path1041"
     d="M 278.70955,54.56616 C 274.0671,54.526976 247.98982,54.236995 220.76004,53.921759 160.83348,53.227995 85.777269,53.137669 71.584691,53.742235 66.228013,53.970414 49.171865,54.24881 33.682139,54.360892 L 5.5190011,54.564676 v -2.011341 c 0,-3.40264 1.6894483,-5.668215 5.6091369,-7.521935 3.875219,-1.832689 6.727921,-1.905322 38.055901,-0.968944 42.059811,1.257147 174.371191,2.1245 198.684041,1.302451 17.66491,-0.597274 38.76424,-0.720756 60.38436,-0.353395 50.14347,0.85202 78.68054,2.032864 80.23135,3.319915 0.47054,0.390518 0.5952,2.154385 0.19501,2.759268 -1.88493,2.849056 -19.16353,3.733064 -70.68694,3.61649 -16.96282,-0.03838 -34.63985,-0.10184 -39.28231,-0.141025 z"
     style="fill:#a0a0a0;stroke:none;stroke-width:0.324647" />
  <path
     transform="scale(0.75000002)"
     id="path1043"
     d="m 5.6853882,52.455814 c 0.4054123,-3.536034 1.8219117,-5.393661 5.4778848,-7.183816 3.08136,-1.508794 4.959222,-1.638125 20.489821,-1.411159 7.856461,0.114815 19.397666,0.349725 25.647123,0.522023 36.622449,1.00968 115.883593,1.345462 225.954393,0.957233 34.67595,-0.122305 47.32128,0.04986 74.66884,1.01661 17.53173,0.619755 28.24119,1.320288 29.91546,1.956844 0.62215,0.236542 0.7637,0.525677 0.7637,1.559992 0,1.133811 -0.12253,1.32778 -1.14546,1.813179 -2.82933,1.342606 -9.3062,1.983913 -25.13966,2.489195 -13.63918,0.435258 -100.0222,0.204156 -140.42118,-0.37567 C 185.35807,53.275831 85.307268,53.229325 61.845277,53.72585 51.489034,53.945019 34.563523,54.210233 24.233032,54.315215 L 5.4503204,54.50609 Z"
     style="fill:#a0a0a0;stroke:none;stroke-width:0.324647" />
  <path
     transform="scale(0.75000002)"
     id="path1045"
     d="m 5.6852416,52.457076 c 0.4055675,-3.537359 1.8216581,-5.394727 5.4780314,-7.185078 3.081763,-1.508992 4.958781,-1.638196 20.489821,-1.410416 7.856461,0.115224 19.470712,0.34995 25.809447,0.521615 36.943531,1.000496 111.173419,1.312611 225.954399,0.950071 34.70073,-0.109603 47.72692,0.06898 74.50651,1.021465 17.59052,0.62565 28.24365,1.323201 29.91546,1.958816 0.62215,0.236542 0.7637,0.525677 0.7637,1.559992 0,1.133811 -0.12253,1.32778 -1.14546,1.813179 -2.82917,1.342541 -9.30552,1.983833 -25.13966,2.489351 -13.64447,0.435611 -100.50727,0.20092 -140.42118,-0.379398 C 185.88693,53.273125 84.965207,53.228118 61.845277,53.725297 51.66759,53.944163 34.815059,54.209945 24.395209,54.315925 L 5.4500273,54.508616 Z"
     style="fill:#a0a0a0;stroke:none;stroke-width:0.324647" />
  <path
     transform="scale(0.75000002)"
     id="path1047"
     d="m 5.6594824,52.48065 c 0.3979357,-3.517286 1.9310042,-5.547674 5.4435106,-7.209355 3.194971,-1.511464 5.031402,-1.637375 20.550101,-1.408983 7.856461,0.115625 19.543757,0.351228 25.97177,0.523562 35.293382,0.946209 111.646526,1.261338 226.279046,0.93391 34.08554,-0.09736 47.44055,0.08866 74.34419,1.035497 16.84159,0.592721 27.92903,1.326468 29.59081,1.958268 0.62215,0.236542 0.7637,0.525677 0.7637,1.559992 0,1.114484 -0.12892,1.330093 -1.05511,1.764401 -2.35268,1.103244 -5.6997,1.584161 -15.66422,2.250735 -8.55835,0.572507 -101.56755,0.551412 -146.90282,-0.03332 -41.98209,-0.54148 -139.713215,-0.600963 -163.45983,-0.09949 -9.463464,0.199848 -25.955244,0.450807 -36.6484,0.557687 L 5.4301268,54.507886 Z"
     style="fill:#a0a0a0;stroke:none;stroke-width:0.324647" />
  <path
     transform="scale(0.75000002)"
     id="path1049"
     d="m 5.6585204,52.489154 c 0.1266746,-1.119656 0.5037254,-2.571662 0.8378906,-3.22668 1.2924081,-2.53333 4.565475,-4.507462 8.660667,-5.223633 2.356008,-0.412021 18.969498,-0.277632 42.954757,0.347468 30.908789,0.805539 71.533665,1.037829 165.245385,0.94486 101.94728,-0.10114 108.34572,-0.04082 143.33171,1.351323 11.4378,0.455125 19.7413,1.09548 21.14998,1.631057 0.62215,0.236542 0.7637,0.525677 0.7637,1.559992 0,1.114484 -0.12892,1.330093 -1.05511,1.764401 -2.38735,1.119497 -5.94425,1.630328 -15.66422,2.249652 -8.55153,0.544875 -104.53149,0.54087 -146.87969,-0.0061 C 189.02308,53.416717 81.133634,53.361686 61.033659,53.79783 53.266477,53.966368 37.577765,54.198904 26.169856,54.314577 L 5.4282028,54.524892 Z"
     style="fill:#a0a0a0;stroke:none;stroke-width:0.324647" />
  <path
     transform="scale(0.75000002)"
     id="path1051"
     d="m 5.6596929,52.470706 c 0.1280029,-1.135843 0.4559115,-2.536532 0.7286857,-3.112644 0.6893782,-1.455997 2.7849917,-3.264234 4.8323404,-4.169669 3.299959,-1.459398 4.943881,-1.553618 22.704905,-1.301307 9.106352,0.129364 17.068323,0.28573 17.693269,0.347481 0.624945,0.06175 5.957274,0.200136 11.849619,0.307524 38.739478,0.706026 72.051728,0.868636 160.700328,0.784444 97.94508,-0.09302 103.92176,-0.04726 134.40391,1.029084 17.12465,0.604681 27.54618,1.303995 29.28502,1.965103 1.06724,0.405761 1.07731,2.617035 0.0143,3.159522 -2.33866,1.193593 -6.23153,1.790238 -15.66422,2.400789 -8.47725,0.548708 -105.79189,0.546392 -149.97369,-0.0036 -36.91683,-0.459529 -139.990898,-0.510763 -160.551187,-0.0798 -7.945738,0.166548 -23.853866,0.40078 -35.351395,0.520514 L 5.4269602,54.535874 Z"
     style="fill:#a0a0a0;stroke:none;stroke-width:0.324647" />
  <path
     transform="scale(0.75000002)"
     id="path1053"
     d="m 5.6587438,52.479094 c 0.1285249,-1.140456 0.4568606,-2.54492 0.7296348,-3.121032 1.1305947,-2.387866 4.8189784,-4.701304 8.4412524,-5.294544 2.660786,-0.435771 14.954812,-0.381169 37.600879,0.167001 40.265425,0.974662 80.39882,1.224214 167.51792,1.041637 46.9602,-0.09842 92.6137,-0.04984 101.45222,0.107953 36.69487,0.655093 63.57399,1.844448 66.45712,2.940613 0.60144,0.228666 0.74484,0.527618 0.74484,1.552819 0,1.133648 -0.12259,1.32781 -1.14468,1.812811 -2.94718,1.39854 -8.86523,1.98901 -24.98942,2.493301 -12.80291,0.400418 -101.51358,0.184964 -145.11726,-0.35245 -31.82308,-0.392219 -136.885708,-0.41023 -155.181326,-0.0266 -7.85646,0.164736 -23.838062,0.40134 -35.514667,0.525786 L 5.4250622,54.552651 Z"
     style="fill:#a0a0a0;stroke:none;stroke-width:0.324647" />
  <path
     transform="scale(0.75000002)"
     id="path1616"
     d="m 5.5256822,53.133356 c 0.1058761,-0.786077 0.3500525,-2.052855 0.5426143,-2.815065 0.7073233,-2.799767 4.5632565,-5.517998 8.8984475,-6.272939 2.325542,-0.404976 23.41224,-0.240594 45.905095,0.357855 27.267926,0.725495 79.788971,1.015943 165.894181,0.917417 95.27569,-0.109019 110.95815,0.04074 140.24755,1.339297 14.9163,0.66132 20.97182,1.234295 21.4782,2.032275 0.45282,0.713544 0.29777,2.078195 -0.29497,2.595922 -1.33641,1.167315 -6.2281,1.975128 -15.66423,2.586794 -7.95518,0.51567 -88.82436,0.575656 -137.16341,0.101744 C 189.14012,53.52343 82.904363,53.412191 63.349162,53.796533 54.397732,53.972468 37.682184,54.216802 26.203507,54.3395 L 5.3331802,54.562586 Z"
     style="fill:#a0a0a0;stroke:none;stroke-width:0.324647" />
  <path
     transform="scale(0.75000002)"
     id="path1618"
     d="m 5.5251183,53.136882 c 0.4021412,-2.98432 0.9136796,-4.300436 2.1532497,-5.540006 1.6549193,-1.654919 4.578756,-3.079664 7.288376,-3.551524 2.384644,-0.415268 23.33052,-0.246455 47.690151,0.384357 25.37737,0.657168 64.516605,0.846268 164.839575,0.796419 56.73614,-0.02819 103.15662,0.07158 103.15662,0.221709 0,0.150131 2.81226,0.277353 6.24946,0.282716 13.8589,0.02162 44.86659,1.433137 49.57099,2.256545 1.9037,0.3332 2.2787,0.655059 2.28642,1.962314 0.013,2.211851 -3.42886,3.053136 -16.06506,3.926678 -7.39128,0.51096 -87.60557,0.567755 -142.03312,0.100566 -44.21815,-0.379555 -150.857518,-0.431777 -171.738327,-0.0841 -7.945739,0.1323 -23.254333,0.338767 -34.019099,0.458815 L 5.3320525,54.569638 Z"
     style="fill:#a0a0a0;stroke:none;stroke-width:0.324647" />
  <path
     transform="scale(0.75000002)"
     id="path1620"
     d="m 5.4935382,53.137427 c 0.6350052,-4.292632 1.605688,-5.765213 4.9632818,-7.529578 3.626465,-1.905654 4.619447,-1.97736 24.11565,-1.741453 9.55409,0.115605 18.68589,0.285509 20.292894,0.377563 10.663093,0.610815 57.379716,0.919503 160.051036,1.057563 116.43884,0.156574 121.31024,0.182434 136.51411,0.724698 26.82274,0.956663 36.41538,1.649037 37.0671,2.675416 0.44721,0.704241 0.28897,2.070869 -0.30081,2.598422 -1.31976,1.180484 -5.38441,1.862935 -15.33958,2.575491 -6.76957,0.484542 -85.19565,0.577724 -137.48806,0.163357 C 169.63607,53.518034 98.714253,53.403355 71.260043,53.773545 56.350624,53.974582 35.406147,54.23619 24.71676,54.354897 L 5.2815113,54.570728 Z"
     style="fill:#3d1319;stroke:none;stroke-width:0.324647;fill-opacity:1" />
</svg>
